<?xml version="1.0" encoding="UTF-8" standalone="no"?>
<!-- Created with Inkscape (http://www.inkscape.org/) -->

<svg
   width="1024"
   height="64"
   viewBox="0 0 270.93333 16.933333"
   version="1.1"
   id="svg1"
   sodipodi:docname="breaking.svg"
   inkscape:version="1.3.2 (091e20e, 2023-11-25, custom)"
   xmlns:inkscape="http://www.inkscape.org/namespaces/inkscape"
   xmlns:sodipodi="http://sodipodi.sourceforge.net/DTD/sodipodi-0.dtd"
   xmlns="http://www.w3.org/2000/svg"
   xmlns:svg="http://www.w3.org/2000/svg">
  <sodipodi:namedview
     id="namedview1"
     pagecolor="#505050"
     bordercolor="#eeeeee"
     borderopacity="1"
     inkscape:showpageshadow="0"
     inkscape:pageopacity="0"
     inkscape:pagecheckerboard="0"
     inkscape:deskcolor="#505050"
     inkscape:document-units="mm"
     showgrid="true"
     inkscape:zoom="2.8329125"
     inkscape:cx="964.55504"
     inkscape:cy="19.238152"
     inkscape:window-width="1920"
     inkscape:window-height="1051"
     inkscape:window-x="-9"
     inkscape:window-y="-9"
     inkscape:window-maximized="1"
     inkscape:current-layer="layer1">
    <inkscape:grid
       id="grid1"
       units="px"
       originx="0"
       originy="0"
       spacingx="16.933333"
       spacingy="16.933333"
       empcolor="#0099e5"
       empopacity="0.30196078"
       color="#0099e5"
       opacity="0.14901961"
       empspacing="0"
       dotted="false"
       gridanglex="30"
       gridanglez="30"
       visible="true" />
  </sodipodi:namedview>
  <defs
     id="defs1" />
  <g
     inkscape:label="Layer 1"
     inkscape:groupmode="layer"
     id="layer1">
    <path
       style="fill:none;stroke:#000000;stroke-width:0.264583px;stroke-linecap:butt;stroke-linejoin:miter;stroke-opacity:1"
       d="m 9.7132075,4.2028303 c 0,1.5877357 0,3.1754714 0,4.7632074 0,0.6537735 0.031854,1.3083233 0,1.9613203 -0.2239655,4.591294 -0.1867926,-0.161803 -0.1867926,2.98868"
       id="path1" />
    <path
       style="fill:none;stroke:#000000;stroke-width:0.264583px;stroke-linecap:butt;stroke-linejoin:miter;stroke-opacity:1"
       d="m 23.25566,4.4830187 c 0.398264,-0.1308359 0.803996,-0.093396 1.214151,-0.093396 0.06226,0 0.132364,-0.030238 0.186793,0 0.558471,0.3102617 0.770444,0.5836523 1.214151,1.0273582 0.15566,0.1556605 0.31132,0.311321 0.466981,0.4669814 0.224155,0.2241561 0.974296,0.9456433 1.120754,1.214151 0.05963,0.1093226 0,0.2490565 0,0.3735847 0,0.3424529 0,0.6849057 0,1.0273586 0,0.034533 0.0604,0.9389893 -0.0934,1.1207546 -0.270547,0.3197363 -0.61745,0.5662558 -0.933962,0.8405658 -0.150641,0.130556 -0.291466,0.279077 -0.466981,0.373585 -0.234199,0.126107 -0.509259,0.161233 -0.74717,0.280189 -0.373585,0.186792 -0.513679,0.373585 -0.840566,0.560377 -0.120883,0.06908 -0.275137,0.08834 -0.373585,0.186793 -0.04403,0.04403 0.04403,0.142765 0,0.186792 -0.09845,0.09845 -0.282977,0.08108 -0.373585,0.186792 -0.109106,0.127291 -0.118703,0.31378 -0.186792,0.466982 -0.242484,0.545587 -0.186793,0.180137 -0.186793,0.747169 0,0.124529 -0.06407,0.266803 0,0.373585 0.05065,0.08442 0.19413,0.04559 0.280189,0.0934 0.49711,0.276172 0.546576,0.48382 1.120755,0.560377 0.27773,0.03703 0.56209,-0.03094 0.840565,0 0.285269,0.0317 0.554836,0.15958 0.840567,0.186792 0.371901,0.03542 0.749223,-0.03911 1.120754,0 0.225401,0.02373 0.430784,0.146249 0.653775,0.186793 0.122518,0.02228 0.249054,0 0.373583,0 0.15566,0 0.311322,0 0.466982,0"
       id="path3" />
    <path
       style="fill:none;stroke:#000000;stroke-width:0.264583px;stroke-linecap:butt;stroke-linejoin:miter;stroke-opacity:1"
       d="m 41.000944,5.6037736 c 1.534443,0 1.239353,-0.2419051 2.334906,0.4669811 0.261374,0.1691254 0.578043,0.2990017 0.747167,0.5603772 0.192834,0.2980142 0.167942,0.6906138 0.280191,1.0273585 0.04403,0.1320824 0.148543,0.2397149 0.186791,0.3735851 0.02566,0.089803 0,0.1867924 0,0.2801884 0,0.5600756 0.03227,0.8244316 -0.560377,1.1207549 -0.387842,0.1939205 -0.802783,0.3298584 -1.214152,0.4669811 -0.05907,0.01969 -0.142764,-0.044027 -0.18679,0 -0.04403,0.044028 0,0.1245281 0,0.1867921 0,0.06226 -0.02785,0.131102 0,0.186793 0.01392,0.02784 0.06749,-0.01727 0.0934,0 0.165862,0.110575 0.305766,0.256337 0.466981,0.373585 0.181558,0.132042 0.387914,0.229865 0.560377,0.373585 0.02392,0.01993 -0.01265,0.06495 0,0.0934 0.596641,1.342443 0.370258,0.243578 0.560377,2.334905 0.0141,0.155022 0,0.311321 0,0.466982 0,0.0876 0.05569,0.460986 -0.0934,0.560377 -0.0874,0.05827 -0.468371,-0.08189 -0.560377,-0.0934 -0.123568,-0.01545 -0.249058,0 -0.373586,0 -0.280189,-0.06226 -0.556879,-0.143149 -0.840566,-0.186793 -0.123081,-0.01894 -0.249057,0 -0.373583,0 -0.06227,0 -0.131104,-0.02784 -0.186794,0 -0.02784,0.01392 0,0.06226 0,0.0934"
       id="path4" />
    <path
       style="fill:none;stroke:#000000;stroke-width:0.264583px;stroke-linecap:butt;stroke-linejoin:miter;stroke-opacity:1"
       d="m 56.691508,2.9886793 c -0.07074,1.3777833 0.188868,2.7395956 0.280189,4.109434 0.04998,0.7496341 -0.111578,1.0286028 0.186793,1.7745281 0.02312,0.057811 0.126389,-0.015102 0.186793,0 0.545266,0.136317 -0.330041,0.1369872 0.560377,0 0.278635,-0.042867 0.560512,-0.061082 0.840565,-0.093396 0.529384,-0.061083 1.055878,-0.1535515 1.587736,-0.1867926 0.570235,-0.03564 2.479754,0.013039 2.98868,0.093396 0.08698,0.013732 0.147413,0.1080338 0.186793,0.1867924 0.01392,0.027846 -0.06226,0 -0.0934,0"
       id="path5" />
    <path
       style="fill:none;stroke:#000000;stroke-width:0.264583px;stroke-linecap:butt;stroke-linejoin:miter;stroke-opacity:1"
       d="m 61.267924,3.6424528 c 0,0.1556605 0,0.3113207 0,0.4669811 0,0.8716981 0.03555,1.7441214 0,2.6150943 -0.02678,0.6561855 -0.128646,1.3071681 -0.186793,1.9613208 -0.06638,0.746815 -0.129289,1.493958 -0.186791,2.241509 -0.147629,1.919179 0.01344,0.813347 -0.280191,2.428302"
       id="path6" />
    <path
       style="fill:none;stroke:#000000;stroke-width:0.264583px;stroke-linecap:butt;stroke-linejoin:miter;stroke-opacity:1"
       d="m 71.915093,3.4556604 c 0,1.3964957 -0.02368,-1.0548705 0.186793,1.6811321 0.03104,0.4035248 -0.04027,0.8114424 0,1.2141509 0.02254,0.22552 0.174879,0.4274418 0.186794,0.6537735 0.01971,0.3743616 -0.0737,0.746393 -0.0934,1.1207546 -0.02127,0.4041577 0,0.809434 0,1.214151 0,0.031132 0,-0.062264 0,-0.093396 0,-0.1867926 -0.02318,-0.3750275 0,-0.5603774 0.0086,-0.069076 0.03113,-0.1556605 0.0934,-0.1867924 1.045064,-0.5225333 1.131718,-0.3735851 2.334905,-0.3735851 0.280189,0 0.561528,-0.025366 0.840565,0 0.06933,0.0063 0.143304,0.039038 0.186794,0.093396 0.08697,0.1087178 0.142764,0.2415026 0.18679,0.3735848 0.345721,1.0371595 0.280189,0.8341137 0.280189,1.7745286 0,0.466981 0,0.933962 0,1.400943 0,0.293811 0.03408,1.642642 -0.0934,1.961321 -0.08176,0.204392 -0.296603,0.327582 -0.466981,0.466981 -0.173749,0.14216 -0.349396,0.296865 -0.560377,0.373585 -0.146288,0.0532 -0.31178,0.01194 -0.466982,0 -0.864846,-0.06653 -0.745723,-0.07074 -1.587735,-0.466981 -0.25195,-0.118565 -0.498113,-0.249057 -0.74717,-0.373585 -0.06227,-0.03113 -0.148178,-0.03547 -0.186794,-0.0934 -0.03454,-0.05181 0,-0.124528 0,-0.186793 0,-0.06226 0,-0.124528 0,-0.186792"
       id="path7" />
    <path
       style="fill:none;stroke:#000000;stroke-width:0.264583px;stroke-linecap:butt;stroke-linejoin:miter;stroke-opacity:1"
       d="m 72.195282,3.8292452 c 0.74717,0 1.49434,0 2.24151,0 0.280188,0 0.560999,-0.018637 0.840565,0 0.18895,0.012597 0.373587,0.062264 0.560377,0.093396"
       id="path8" />
    <path
       style="fill:none;stroke:#000000;stroke-width:0.264583px;stroke-linecap:butt;stroke-linejoin:miter;stroke-opacity:1"
       d="m 94.330188,5.2301885 c -0.124529,0.031132 -0.263517,0.027355 -0.373586,0.093396 -0.908294,0.5449771 -1.525622,1.8373791 -1.774526,2.8018866 -0.252439,0.9781945 -0.186793,2.0901919 -0.186793,3.0820759 0,0.281051 -0.04885,0.901222 0.0934,1.214151 0.0929,0.204374 0.233344,0.385075 0.373586,0.560377 0.20029,0.250365 0.487894,0.538336 0.840566,0.560378 0.723188,0.0452 1.330293,-0.130434 1.961319,-0.466981 0.175892,-0.09381 0.3127,-0.247354 0.466981,-0.373585 0.658781,-0.539001 0.456536,-0.2593 0.74717,-0.840566 0.06226,-0.124529 0.153025,-0.238515 0.186794,-0.373585 0.08221,-0.328826 7.93e-4,-0.473099 -0.280189,-0.653774 -0.200726,-0.129037 -1.161788,-0.702333 -1.587735,-0.74717 -0.402495,-0.04237 -0.809853,-0.01838 -1.214152,0 -0.281623,0.0128 -0.559811,0.06787 -0.840565,0.0934 -0.06201,0.0056 -0.142767,-0.04403 -0.186794,0 -0.04403,0.04403 0,0.124528 0,0.186792"
       id="path9" />
    <path
       style="fill:none;stroke:#000000;stroke-width:0.264583px;stroke-linecap:butt;stroke-linejoin:miter;stroke-opacity:1"
       d="m 107.49906,5.790566 c 0.90836,-0.018386 1.8036,-0.00356 2.70849,0.093396 0.13351,0.014306 2.3897,0.3121152 2.61509,0.3735848 0.28019,0.1245283 0.56038,0.2490565 0.84057,0.3735848 0,0.062264 -0.044,0.1427652 0,0.1867926 0.044,0.044027 0.1311,-0.027845 0.18679,0 0.0279,0.013922 0.006,0.062869 0,0.093396 -0.0252,0.1258681 -0.0775,0.2462154 -0.0934,0.373585 -0.0735,0.5880312 0.18901,0.3022465 -0.28019,1.0273583 -0.58634,0.9061688 -1.20944,1.3335749 -1.96132,2.1481135 -0.35959,0.389564 -0.66776,0.824588 -1.02736,1.214151 -0.67509,0.731351 -1.58685,1.5722 -2.3349,2.24151 -0.2139,0.191385 -0.43925,0.369689 -0.65377,0.560377 -0.0658,0.0585 -0.10804,0.147413 -0.1868,0.186792 -0.0557,0.02785 -0.12453,0 -0.18679,0"
       id="path11" />
    <path
       style="fill:none;stroke:#000000;stroke-width:0.264583px;stroke-linecap:butt;stroke-linejoin:miter;stroke-opacity:1"
       d="m 107.12547,10.366981 c 0.49811,-0.06226 0.99372,-0.14971 1.49434,-0.186792 0.34152,-0.0253 0.68491,0 1.02736,0 0.8717,0 1.74339,0 2.61509,0 0.43585,0 0.87469,0.05092 1.30755,0 0.332,-0.2213309 0.16794,-0.186793 0.46698,-0.186793"
       id="path12" />
    <path
       style="fill:none;stroke:#000000;stroke-width:0.264583px;stroke-linecap:butt;stroke-linejoin:miter;stroke-opacity:1"
       d="m 131.40849,5.9773584 c -0.15566,-0.062264 -0.30203,-0.1568022 -0.46698,-0.1867924 -0.53447,-0.097176 -1.65742,0.211119 -1.96132,0.2801887 -0.22101,0.050229 -0.43253,0.1376262 -0.65378,0.1867924 -0.0608,0.013507 -0.14276,-0.044028 -0.18679,0 -0.044,0.044028 0.0518,0.1522545 0,0.1867924 -1.04605,0.6973668 -0.17008,-0.3998465 -0.84057,0.6537738 -0.40812,0.6413357 -0.37358,0.3277954 -0.37358,0.7471695 0,0.1245285 -0.0491,0.2591255 0,0.3735851 0.052,0.1214027 0.22725,0.1591804 0.28019,0.2801887 0.16972,0.3879395 0.21875,0.8200316 0.37358,1.2141509 0.49916,1.2705635 0.73623,1.2843815 1.02736,2.5216975 0.0357,0.151523 0,0.311321 0,0.466982 0,0.186792 0,0.373585 0,0.560377 0,0.124528 0.0394,0.255447 0,0.373585 -0.0649,0.194581 -0.44863,0.749391 -0.65377,0.840566 -0.14225,0.06322 -0.31132,0 -0.46698,0 -0.93842,0 -0.83498,0.03246 -2.14811,-0.280189 -0.13545,-0.03225 -0.2603,-0.105868 -0.37359,-0.186792 -0.46884,-0.334886 -0.18534,-0.179556 -0.28019,-0.653774 -0.0386,-0.193073 -0.14169,-0.368715 -0.18679,-0.560377 -0.0797,-0.338815 -0.13387,-0.683339 -0.18679,-1.027359 -0.009,-0.06154 -0.0374,-0.136981 0,-0.186792 0.63024,-0.840331 1.29522,-0.900355 2.3349,-1.400943 0.38986,-0.1877082 1.77052,-0.8877483 1.96132,-1.0273589 0.13751,-0.1006179 2.37542,-1.6514003 2.98868,-2.6150943 0.18687,-0.293651 0.27391,-0.644353 0.46698,-0.9339622 0.0488,-0.073266 0.12453,-0.2490568 0.18679,-0.1867927 0.0696,0.069613 -0.0362,0.2000782 -0.0934,0.2801888 -0.10236,0.1433062 -0.24906,0.2490567 -0.37359,0.373585"
       id="path13" />
    <path
       style="fill:none;stroke:#000000;stroke-width:0.264583px;stroke-linecap:butt;stroke-linejoin:miter;stroke-opacity:1"
       d="m 144.57736,4.6698114 c -0.15566,-0.062264 -0.29946,-0.1803493 -0.46699,-0.1867927 -1.43567,-0.055218 -2.48447,0.013441 -3.64245,0.8405662 -0.34082,0.2434452 -0.62521,0.5575461 -0.93396,0.8405659 -0.0649,0.059501 -0.16769,0.1008345 -0.18679,0.1867926 -0.0473,0.2127351 -0.0128,0.4362249 0,0.6537735 0.0184,0.3123335 -0.0465,0.6541196 0.0934,0.9339622 0.0557,0.1113814 0.24906,0 0.37359,0 0.18679,0 0.39033,0.077295 0.56038,0 0.2004,-0.091093 0.31132,-0.3113206 0.46698,-0.4669811 0.17275,-0.1727514 0.65045,-0.6229461 0.74717,-0.8405661 0.0506,-0.1137952 -0.0244,-0.2514748 0,-0.3735848 -0.0513,-0.3771204 0.29819,-0.6072463 0.37358,-0.9339622 0.0634,-0.2746936 0.0192,-0.5685867 0.0934,-0.8405662 0.0232,-0.084952 0.14741,-0.1080336 0.18679,-0.1867924 0.0279,-0.055691 0,-0.2490565 0,-0.1867924 0,0.2179246 0,0.4358489 0,0.6537735 0,0.1867924 -0.0247,0.3752236 0,0.5603775 0.0759,0.5690116 0.2863,1.1137601 0.37359,1.681132 0.18097,1.1763245 0.22712,1.6725588 0.18679,2.8018867 -0.0167,0.4677194 -0.0272,0.9376294 -0.0934,1.4009434 -0.0278,0.194918 -0.14817,0.367305 -0.18679,0.560377 -0.0366,0.183166 0,0.373585 0,0.560378 0,0.03113 0,-0.06226 0,-0.0934"
       id="path14" />
    <path
       style="fill:none;stroke:#000000;stroke-width:0.264583px;stroke-linecap:butt;stroke-linejoin:miter;stroke-opacity:1"
       d="m 160.7349,4.9499998 c 0,0.6849057 0,1.3698114 0,2.0547171 0,0.4669811 0.0861,0.9419606 0,1.4009434 -0.10343,0.5516287 -0.42425,1.0432515 -0.56037,1.5877357 -0.0834,0.333598 -0.006,0.694815 -0.0934,1.027359 -0.42928,1.631247 -0.37358,0.123155 -0.37358,1.120754"
       id="path15" />
    <path
       style="fill:none;stroke:#000000;stroke-width:0.264583px;stroke-linecap:butt;stroke-linejoin:miter;stroke-opacity:1"
       d="m 165.7783,7.0981133 c -0.34245,-0.062264 -0.69199,-0.2799506 -1.02736,-0.1867927 -0.29695,0.082486 -0.46336,0.4114369 -0.65377,0.6537738 -0.32456,0.4130728 -0.87864,1.7781076 -0.93396,2.0547168 -0.0916,0.4579128 0,0.9339618 0,1.4009438 0,0.31132 0,0.622641 0,0.933962 0,0.124528 -0.0747,0.273962 0,0.373585 0.056,0.07472 0.18736,0.01031 0.28018,0 0.81001,-0.09 0.65669,-0.09631 1.40095,-0.840566 0.20295,-0.202957 0.44998,-0.388829 0.56038,-0.653774 0.43062,-1.0335086 0.37358,-1.4089717 0.37358,-2.3349054 0,-0.1556605 0.022,-0.3128854 0,-0.4669811 -0.0287,-0.2008473 -0.40711,-0.5005028 -0.46698,-0.5603775 -0.16604,-0.1660376 -0.25262,-0.3406724 -0.56038,-0.1867924 -0.1004,0.050199 -0.12453,0.1867924 -0.18679,0.2801888"
       id="path16" />
    <path
       style="fill:none;stroke:#000000;stroke-width:0.264583px;stroke-linecap:butt;stroke-linejoin:miter;stroke-opacity:1"
       d="m 175.11792,6.0707547 c -0.29972,1.1988808 -0.19067,0.6276991 -0.37358,2.3349056 -0.0366,0.341908 -0.077,0.6838828 -0.0934,1.0273585 -0.0178,0.373162 0,0.7471702 0,1.1207542"
       id="path18" />
    <path
       style="fill:none;stroke:#000000;stroke-width:0.264583px;stroke-linecap:butt;stroke-linejoin:miter;stroke-opacity:1"
       d="m 180.16132,6.3509434 c 0.25262,1.8946871 0.18679,0.9298295 0.18679,2.895283 0,0.3735848 0.0117,0.7473519 0,1.1207546 -0.0634,2.030406 0.2376,1.371439 -0.46698,2.428302"
       id="path19" />
    <path
       style="fill:none;stroke:#000000;stroke-width:0.264583px;stroke-linecap:butt;stroke-linejoin:miter;stroke-opacity:1"
       d="m 192.58302,5.9773584 c 0.0623,0.404717 0.11445,0.811113 0.18679,1.2141509 0.14562,0.8113009 0.34028,1.6138316 0.46698,2.4283019 0.18284,1.1754188 0.20536,2.3714568 0.37359,3.5490568 0.2138,1.496645 0.18679,0.321637 0.18679,1.214151"
       id="path20" />
    <path
       style="fill:none;stroke:#000000;stroke-width:0.264583px;stroke-linecap:butt;stroke-linejoin:miter;stroke-opacity:1"
       d="m 196.13207,7.6584904 c 0.14949,0.1195864 0.72801,0.5542169 0.84057,0.7471699 0.53032,0.9091178 0.20388,0.455019 0.28019,1.0273585 0.0634,0.4753967 0.33312,1.2471412 0.0934,1.7745282 -0.80716,1.77575 -0.66627,0.894609 -1.40094,2.241509 -0.0298,0.05466 0.0197,0.127724 0,0.186793 -0.21464,0.643913 -0.18679,0.138369 -0.18679,0.560377 0,0.06226 -0.0473,0.146272 0,0.186793 0.33166,0.284278 0.632,0.390951 1.02736,0.466981 0.68361,0.131463 1.36756,0.262154 2.05471,0.373585 0.46504,0.07541 0.93575,0.112361 1.40095,0.186792 1.24377,0.199004 0.56769,0.186793 1.12075,0.186793"
       id="path21" />
    <path
       style="fill:none;stroke:#000000;stroke-width:0.264583px;stroke-linecap:butt;stroke-linejoin:miter;stroke-opacity:1"
       d="m 208.64717,6.2575471 c -0.55304,0.9217287 -0.059,-0.044324 -0.37359,1.2141509 -1.42619,4.753977 0.0549,-0.5410006 -0.74717,3.268868 -0.15245,0.724128 -0.43281,1.41919 -0.56038,2.148113 -0.0952,0.544139 -0.0934,1.120683 -0.0934,1.681132"
       id="path22" />
    <path
       style="fill:none;stroke:#000000;stroke-width:0.264583px;stroke-linecap:butt;stroke-linejoin:miter;stroke-opacity:1"
       d="m 213.03679,5.8839623 c 1.79835,0.3269732 1.0761,0.030975 3.17547,1.8679245 0.56328,0.4928682 1.12822,0.9969325 1.58774,1.5877357 0.20585,0.2646719 0.51233,0.628714 0.37358,0.9339625 -0.11665,0.256644 -0.56083,0.05843 -0.84056,0.0934 -0.46748,0.05844 -0.93397,0.124528 -1.40095,0.186792 -0.31959,0.04261 -1.3669,-0.06807 -1.58773,0.373585 -0.0279,0.05569 -0.0102,0.125376 0,0.186793 0.0211,0.126614 0.036,0.258775 0.0934,0.373585 0.0394,0.07876 0.10537,0.153265 0.1868,0.186792 0.45516,0.187421 0.95608,0.25626 1.40094,0.466981 0.2849,0.134951 0.44277,0.482555 0.56038,0.74717 0.19866,0.446995 0.25085,0.514831 0.18679,1.027359 -0.0553,0.442301 -0.79589,0.406281 -1.21415,0.560377 -1.63974,0.604112 0.15801,0.341983 -3.26887,1.027359 -1.01593,0.203185 -0.95337,0.167389 -1.40094,-0.280189"
       id="path23" />
    <path
       style="fill:none;stroke:#000000;stroke-width:0.264583px;stroke-linecap:butt;stroke-linejoin:miter;stroke-opacity:1"
       d="m 224.99151,6.4443395 c -0.0223,1.2447987 0.0271,2.4911544 0,3.7358495 -0.0203,0.93426 -0.0712,1.86767 -0.0934,2.801886 -0.0295,1.238293 0.27111,0.849641 -0.18679,1.307548"
       id="path24" />
    <path
       style="fill:none;stroke:#000000;stroke-width:0.264583px;stroke-linecap:butt;stroke-linejoin:miter;stroke-opacity:1"
       d="m 229.56792,5.4169809 c -0.36253,1.2976281 -0.28019,2.6015691 -0.28019,3.9226416 0,0.1867924 0,0.373585 0,0.5603774 0,0.2179251 0.0331,0.4383831 0,0.6537731 -0.0299,0.194608 -0.21121,0.365002 -0.18679,0.560378 0.0139,0.111381 0.17305,0.220273 0.28019,0.186792 0.43874,-0.137105 0.80857,-0.437463 1.21415,-0.653773 0.52839,-0.281806 1.04551,-0.586399 1.58774,-0.8405664 0.80578,-0.3777094 1.7523,-0.6986564 2.61509,-0.9339622 0.27691,-0.075521 0.56038,-0.1245283 0.84057,-0.1867924"
       id="path25" />
    <path
       style="fill:none;stroke:#000000;stroke-width:0.264583px;stroke-linecap:butt;stroke-linejoin:miter;stroke-opacity:1"
       d="m 233.77075,6.4443395 c 0.0575,1.5009937 -0.12346,2.9940747 -0.28019,4.4830185 -0.0925,0.878857 -0.22192,2.265528 -0.37358,3.175472 -0.0472,0.283118 -0.12453,0.560377 -0.18679,0.840566"
       id="path26" />
    <path
       style="fill:none;stroke:#000000;stroke-width:0.264583px;stroke-linecap:butt;stroke-linejoin:miter;stroke-opacity:1"
       d="m 240.0283,5.790566 c 0.12453,0.1245282 0.3252,0.2042512 0.37358,0.3735848 0.1464,0.5123918 0.13627,1.0572411 0.1868,1.587736 0.074,0.7772712 0.13808,1.5556375 0.18679,2.3349052 0.0175,0.279643 0,0.560378 0,0.840566"
       id="path27" />
    <path
       style="fill:none;stroke:#000000;stroke-width:0.264583px;stroke-linecap:butt;stroke-linejoin:miter;stroke-opacity:1"
       d="m 245.81887,4.4830187 c 0,0.9339622 0,1.8679247 0,2.8018869 0,0.404717 0,0.809434 0,1.214151 0,0.2179243 0,0.4358489 0,0.6537735 0,0.062264 -0.0544,0.2170306 0,0.1867924 3.28823,-1.826795 -3.73989,1.0486135 3.17547,-1.6811321 0.18349,-0.07243 1.65886,-0.6760408 2.05471,-0.2801887 0.17611,0.1761096 0,0.4981133 0,0.7471698 0,0.1867924 0,0.3735851 0,0.5603775 0,0.404717 0.0547,0.813145 0,1.2141509 -0.0399,0.2926361 -0.16023,0.5706771 -0.28018,0.8405661 -0.40264,0.905921 -0.92869,1.443714 -1.58774,2.241509 -0.21077,0.255141 -0.39146,0.545393 -0.65377,0.74717 -0.27563,0.212022 -0.5425,0.186793 -0.84057,0.186793"
       id="path28" />
    <path
       style="fill:none;stroke:#000000;stroke-width:0.264583px;stroke-linecap:butt;stroke-linejoin:miter;stroke-opacity:1"
       d="m 245.53868,5.1367925 c 0.76147,0.038134 1.34121,-0.4952167 2.05471,-0.6537738 0.15196,-0.033767 0.31597,0.037753 0.46698,0 0.0675,-0.016883 0.12453,-0.062264 0.1868,-0.093396 0.45234,-0.226172 0.27513,-0.088344 0.56037,-0.3735851"
       id="path29" />
    <path
       style="fill:none;stroke:#000000;stroke-width:0.264583px;stroke-linecap:butt;stroke-linejoin:miter;stroke-opacity:1"
       d="m 257.49339,4.1094339 c 0,1.2452829 0,2.490566 0,3.7358489 0,0.4669811 0.0311,0.9349968 0,1.4009436 -0.0313,0.4700701 -0.14212,0.9319516 -0.18679,1.4009436 -0.0747,0.78473 0.14852,0.33759 -0.18679,0.840566"
       id="path30" />
    <path
       style="fill:none;stroke:#000000;stroke-width:0.264583px;stroke-linecap:butt;stroke-linejoin:miter;stroke-opacity:1"
       d="m 265.0585,6.1641508 c -1.07832,0.6290151 -1.19075,0.5927973 -2.05473,1.4943396 -0.42756,0.4461555 -0.94274,0.8457832 -1.21415,1.4009434 -0.48791,0.9979872 -0.94749,2.9249312 -1.02736,4.2028302 -0.033,0.528215 -0.023,1.05899 0,1.587736 0.008,0.18919 -0.004,0.397994 0.0934,0.560377 0.19287,0.321457 0.45703,0.603178 0.74717,0.840566 0.0723,0.05914 0.18882,0.01938 0.28019,0 0.93817,-0.199007 1.90304,-0.31932 2.80188,-0.653773 0.5936,-0.220876 1.55504,-0.986058 1.77454,-1.681132 0.0937,-0.29687 0,-0.622642 0,-0.933963 0,-0.404717 0,-0.809434 0,-1.214151 0,-0.48656 0.022,-1.286856 -0.46699,-1.587735 -0.24445,-0.150429 -0.55552,-0.153257 -0.84056,-0.186793 -0.6512,-0.076611 -0.97495,0.012091 -1.58774,0.280189 -0.22995,0.100603 -0.42073,0.280368 -0.65378,0.373585 -0.23836,0.09534 -0.50362,0.10561 -0.74717,0.186792 -0.64391,0.214638 -0.13836,0.186793 -0.56037,0.186793"
       id="path31" />
  </g>
</svg>
