<?xml version="1.0" encoding="UTF-8" standalone="no"?>
<!-- Created with Inkscape (http://www.inkscape.org/) -->

<svg
   width="256"
   height="1080"
   viewBox="0 0 67.73333 285.75"
   version="1.1"
   id="svg1"
   inkscape:version="1.3.2 (091e20e, 2023-11-25, custom)"
   sodipodi:docname="Y.svg"
   xmlns:inkscape="http://www.inkscape.org/namespaces/inkscape"
   xmlns:sodipodi="http://sodipodi.sourceforge.net/DTD/sodipodi-0.dtd"
   xmlns="http://www.w3.org/2000/svg"
   xmlns:svg="http://www.w3.org/2000/svg">
  <sodipodi:namedview
     id="namedview1"
     pagecolor="#505050"
     bordercolor="#eeeeee"
     borderopacity="1"
     inkscape:showpageshadow="0"
     inkscape:pageopacity="0"
     inkscape:pagecheckerboard="0"
     inkscape:deskcolor="#505050"
     inkscape:document-units="mm"
     showgrid="true"
     inkscape:zoom="0.25039645"
     inkscape:cx="317.49651"
     inkscape:cy="213.66117"
     inkscape:window-width="1920"
     inkscape:window-height="1051"
     inkscape:window-x="-9"
     inkscape:window-y="-9"
     inkscape:window-maximized="1"
     inkscape:current-layer="layer1">
    <inkscape:grid
       id="grid1"
       units="px"
       originx="0"
       originy="0"
       spacingx="0.26458332"
       spacingy="0.26458333"
       empcolor="#0099e5"
       empopacity="0.30196078"
       color="#0099e5"
       opacity="0.14901961"
       empspacing="5"
       dotted="false"
       gridanglex="30"
       gridanglez="30"
       visible="true"
       enabled="false" />
  </sodipodi:namedview>
  <defs
     id="defs1" />
  <g
     inkscape:label="Layer 1"
     inkscape:groupmode="layer"
     id="layer1">
    <path
       style="fill:#272727;fill-opacity:1;fill-rule:evenodd;stroke:none;stroke-width:59.5876;stroke-linecap:square;stroke-miterlimit:10000;stroke-dasharray:none;paint-order:stroke fill markers"
       d="m 28.484016,340.16238 5.110859,5.11088 5.110878,-5.11088 -1.9e-5,40.88693 -5.110859,5.11084 -5.110859,-5.11084 z"
       id="path1"
       sodipodi:nodetypes="ccccccc" />
    <g
       id="g6"
       transform="matrix(19.316658,0,0,19.316658,-630.81769,-129.15882)"
       style="fill:#272727">
      <path
         id="path2"
         style="fill:#272727;fill-opacity:1;fill-rule:evenodd;stroke:none;stroke-width:3.08478;stroke-linecap:square;stroke-miterlimit:10000;stroke-dasharray:none;paint-order:stroke fill markers"
         d="m 32.899284,22.425503 v 0.374137 l 1.122412,1.122412 0.374137,0.374138 0.374137,-0.374138 1.122413,-1.122412 v -0.374137 h -0.374138 l -1.122412,1.122412 -1.122412,-1.122412 z" />
    </g>
    <path
       style="fill:#272727;fill-opacity:1;fill-rule:evenodd;stroke:none;stroke-width:59.5876;stroke-linecap:square;stroke-miterlimit:10000;stroke-dasharray:none;paint-order:stroke fill markers"
       d="m 28.484016,274.59956 5.110859,5.11087 5.110878,-5.11087 -1.9e-5,40.88693 -5.110859,5.11084 -5.110859,-5.11084 z"
       id="path17"
       sodipodi:nodetypes="ccccccc" />
    <g
       id="g18"
       transform="matrix(19.316658,0,0,19.316658,-630.8177,-194.72164)"
       style="fill:#272727">
      <path
         id="path18"
         style="fill:#272727;fill-opacity:1;fill-rule:evenodd;stroke:none;stroke-width:3.08478;stroke-linecap:square;stroke-miterlimit:10000;stroke-dasharray:none;paint-order:stroke fill markers"
         d="m 32.899284,22.425503 v 0.374137 l 1.122412,1.122412 0.374137,0.374138 0.374137,-0.374138 1.122413,-1.122412 v -0.374137 h -0.374138 l -1.122412,1.122412 -1.122412,-1.122412 z" />
    </g>
    <path
       style="fill:#272727;fill-opacity:1;fill-rule:evenodd;stroke:none;stroke-width:59.5876;stroke-linecap:square;stroke-miterlimit:10000;stroke-dasharray:none;paint-order:stroke fill markers"
       d="m 28.483996,209.03675 5.11086,5.11088 5.110878,-5.11088 -1.9e-5,40.88693 -5.110859,5.11084 -5.11086,-5.11084 z"
       id="path19"
       sodipodi:nodetypes="ccccccc" />
    <g
       id="g20"
       transform="matrix(19.316658,0,0,19.316658,-630.81771,-260.28444)"
       style="fill:#272727">
      <path
         id="path20"
         style="fill:#272727;fill-opacity:1;fill-rule:evenodd;stroke:none;stroke-width:3.08478;stroke-linecap:square;stroke-miterlimit:10000;stroke-dasharray:none;paint-order:stroke fill markers"
         d="m 32.899284,22.425503 v 0.374137 l 1.122412,1.122412 0.374137,0.374138 0.374137,-0.374138 1.122413,-1.122412 v -0.374137 h -0.374138 l -1.122412,1.122412 -1.122412,-1.122412 z" />
    </g>
    <path
       style="fill:#ffffff;fill-opacity:1;fill-rule:evenodd;stroke:none;stroke-width:59.5876;stroke-linecap:square;stroke-miterlimit:10000;stroke-dasharray:none;paint-order:stroke fill markers"
       d="m 28.483996,143.47393 5.11086,5.11088 5.110878,-5.11088 -1.9e-5,40.88693 -5.110859,5.11084 -5.11086,-5.11084 z"
       id="path21"
       sodipodi:nodetypes="ccccccc" />
    <g
       id="g22"
       transform="matrix(19.316658,0,0,19.316658,-630.81772,-325.84727)"
       style="fill:#ffffff">
      <path
         id="path22"
         style="fill:#ffffff;fill-opacity:1;fill-rule:evenodd;stroke:none;stroke-width:3.08478;stroke-linecap:square;stroke-miterlimit:10000;stroke-dasharray:none;paint-order:stroke fill markers"
         d="m 32.899284,22.425503 v 0.374137 l 1.122412,1.122412 0.374137,0.374138 0.374137,-0.374138 1.122413,-1.122412 v -0.374137 h -0.374138 l -1.122412,1.122412 -1.122412,-1.122412 z" />
    </g>
    <path
       style="fill:#272727;fill-opacity:1;fill-rule:evenodd;stroke:none;stroke-width:59.5876;stroke-linecap:square;stroke-miterlimit:10000;stroke-dasharray:none;paint-order:stroke fill markers"
       d="m 28.483977,77.911124 5.110859,5.110878 5.110879,-5.110878 -1.9e-5,40.886936 -5.11086,5.11084 -5.110859,-5.11084 z"
       id="path37"
       sodipodi:nodetypes="ccccccc" />
    <g
       id="g38"
       transform="matrix(19.316658,0,0,19.316658,-630.81774,-391.41007)"
       style="fill:#272727">
      <path
         id="path38"
         style="fill:#272727;fill-opacity:1;fill-rule:evenodd;stroke:none;stroke-width:3.08478;stroke-linecap:square;stroke-miterlimit:10000;stroke-dasharray:none;paint-order:stroke fill markers"
         d="m 32.899284,22.425503 v 0.374137 l 1.122412,1.122412 0.374137,0.374138 0.374137,-0.374138 1.122413,-1.122412 v -0.374137 h -0.374138 l -1.122412,1.122412 -1.122412,-1.122412 z" />
    </g>
    <path
       style="fill:#272727;fill-opacity:1;fill-rule:evenodd;stroke:none;stroke-width:59.5876;stroke-linecap:square;stroke-miterlimit:10000;stroke-dasharray:none;paint-order:stroke fill markers"
       d="m 28.483977,12.3483 5.110859,5.110879 5.110879,-5.110879 -1.9e-5,40.886933 -5.11086,5.11084 -5.110859,-5.11084 z"
       id="path39"
       sodipodi:nodetypes="ccccccc" />
    <g
       id="g40"
       transform="matrix(19.316658,0,0,19.316658,-630.81775,-456.97289)"
       style="fill:#272727">
      <path
         id="path40"
         style="fill:#272727;fill-opacity:1;fill-rule:evenodd;stroke:none;stroke-width:3.08478;stroke-linecap:square;stroke-miterlimit:10000;stroke-dasharray:none;paint-order:stroke fill markers"
         d="m 32.899284,22.425503 v 0.374137 l 1.122412,1.122412 0.374137,0.374138 0.374137,-0.374138 1.122413,-1.122412 v -0.374137 h -0.374138 l -1.122412,1.122412 -1.122412,-1.122412 z" />
    </g>
    <path
       style="fill:#272727;fill-opacity:1;fill-rule:evenodd;stroke:none;stroke-width:59.5876;stroke-linecap:square;stroke-miterlimit:10000;stroke-dasharray:none;paint-order:stroke fill markers"
       d="m 28.483958,-53.214504 5.110859,5.110879 5.110879,-5.110879 -2e-5,40.886933 -5.110859,5.1108396 -5.110859,-5.1108396 z"
       id="path41"
       sodipodi:nodetypes="ccccccc" />
    <g
       id="g42"
       transform="matrix(19.316658,0,0,19.316658,-630.81776,-522.53568)"
       style="fill:#272727">
      <path
         id="path42"
         style="fill:#272727;fill-opacity:1;fill-rule:evenodd;stroke:none;stroke-width:3.08478;stroke-linecap:square;stroke-miterlimit:10000;stroke-dasharray:none;paint-order:stroke fill markers"
         d="m 32.899284,22.425503 v 0.374137 l 1.122412,1.122412 0.374137,0.374138 0.374137,-0.374138 1.122413,-1.122412 v -0.374137 h -0.374138 l -1.122412,1.122412 -1.122412,-1.122412 z" />
    </g>
    <path
       style="fill:#272727;fill-opacity:1;fill-rule:evenodd;stroke:none;stroke-width:59.5876;stroke-linecap:square;stroke-miterlimit:10000;stroke-dasharray:none;paint-order:stroke fill markers"
       d="m 28.483958,-118.77734 5.110859,5.11088 5.110879,-5.11088 -2e-5,40.886945 -5.110859,5.11084 -5.110859,-5.11084 z"
       id="path43"
       sodipodi:nodetypes="ccccccc" />
    <g
       id="g44"
       transform="matrix(19.316658,0,0,19.316658,-630.81777,-588.0985)"
       style="fill:#272727">
      <path
         id="path44"
         style="fill:#272727;fill-opacity:1;fill-rule:evenodd;stroke:none;stroke-width:3.08478;stroke-linecap:square;stroke-miterlimit:10000;stroke-dasharray:none;paint-order:stroke fill markers"
         d="m 32.899284,22.425503 v 0.374137 l 1.122412,1.122412 0.374137,0.374138 0.374137,-0.374138 1.122413,-1.122412 v -0.374137 h -0.374138 l -1.122412,1.122412 -1.122412,-1.122412 z" />
    </g>
  </g>
</svg>
